<svg
  xmlns="http://www.w3.org/2000/svg"
  width="125"
  height="25"
  viewBox="0 0 125 25"
  fill="none"
>
  <path
    d="M11.6044 2.80247C11.9721 2.06242 13.0279 2.06242 13.3956 2.80248L15.6609 7.3618C15.8065 7.65487 16.0863 7.85814 16.41 7.90606L21.4462 8.6516C22.2636 8.77261 22.5899 9.77665 21.9997 10.355L18.3635 13.9184C18.1298 14.1474 18.0229 14.4763 18.0774 14.799L18.9246 19.8191C19.0621 20.6339 18.208 21.2545 17.4756 20.8719L12.963 18.5148C12.6729 18.3633 12.3271 18.3633 12.037 18.5148L7.52448 20.8719C6.79201 21.2545 5.93793 20.6339 6.07544 19.8191L6.92267 14.799C6.97713 14.4763 6.87026 14.1474 6.63653 13.9184L3.00038 10.355C2.41017 9.77665 2.7364 8.77261 3.55386 8.6516L8.59006 7.90606C8.91377 7.85814 9.19356 7.65487 9.33917 7.3618L11.6044 2.80247Z"
    fill="#FFDD2D"
  />
  <path
    d="M36.6045 2.80247C36.9722 2.06242 38.028 2.06242 38.3957 2.80248L40.661 7.3618C40.8066 7.65487 41.0864 7.85814 41.4101 7.90606L46.4463 8.6516C47.2637 8.77261 47.59 9.77665 46.9998 10.355L43.3636 13.9184C43.1299 14.1474 43.023 14.4763 43.0775 14.799L43.9247 19.8191C44.0622 20.6339 43.2081 21.2545 42.4757 20.8719L37.9631 18.5148C37.673 18.3633 37.3272 18.3633 37.0371 18.5148L32.5245 20.8719C31.7921 21.2545 30.938 20.6339 31.0755 19.8191L31.9227 14.799C31.9772 14.4763 31.8703 14.1474 31.6366 13.9184L28.0004 10.355C27.4102 9.77665 27.7365 8.77261 28.5539 8.6516L33.5901 7.90606C33.9138 7.85814 34.1936 7.65487 34.3392 7.3618L36.6045 2.80247Z"
    fill="#FFDD2D"
  />
  <path
    d="M61.6045 2.80247C61.9722 2.06242 63.028 2.06242 63.3957 2.80248L65.661 7.3618C65.8066 7.65487 66.0864 7.85814 66.4101 7.90606L71.4463 8.6516C72.2637 8.77261 72.59 9.77665 71.9998 10.355L68.3636 13.9184C68.1299 14.1474 68.023 14.4763 68.0775 14.799L68.9247 19.8191C69.0622 20.6339 68.2081 21.2545 67.4757 20.8719L62.9631 18.5148C62.673 18.3633 62.3272 18.3633 62.0371 18.5148L57.5245 20.8719C56.7921 21.2545 55.938 20.6339 56.0755 19.8191L56.9227 14.799C56.9772 14.4763 56.8703 14.1474 56.6366 13.9184L53.0004 10.355C52.4102 9.77665 52.7365 8.77261 53.5539 8.6516L58.5901 7.90606C58.9138 7.85814 59.1936 7.65487 59.3392 7.3618L61.6045 2.80247Z"
    fill="#FFDD2D"
  />
  <path
    d="M86.6045 2.80247C86.9722 2.06242 88.028 2.06242 88.3957 2.80248L90.661 7.3618C90.8066 7.65487 91.0864 7.85814 91.4101 7.90606L96.4463 8.6516C97.2637 8.77261 97.59 9.77665 96.9998 10.355L93.3636 13.9184C93.1299 14.1474 93.023 14.4763 93.0775 14.799L93.9247 19.8191C94.0622 20.6339 93.2081 21.2545 92.4757 20.8719L87.9631 18.5148C87.673 18.3633 87.3272 18.3633 87.0371 18.5148L82.5245 20.8719C81.7921 21.2545 80.938 20.6339 81.0755 19.8191L81.9227 14.799C81.9772 14.4763 81.8703 14.1474 81.6366 13.9184L78.0004 10.355C77.4102 9.77665 77.7365 8.77261 78.5539 8.6516L83.5901 7.90606C83.9138 7.85814 84.1936 7.65487 84.3392 7.3618L86.6045 2.80247Z"
    fill="#FFDD2D"
  />
  <path
    d="M111.604 2.80247C111.972 2.06242 113.028 2.06242 113.396 2.80248L115.661 7.3618C115.806 7.65487 116.086 7.85814 116.41 7.90606L121.446 8.6516C122.264 8.77261 122.59 9.77665 122 10.355L118.364 13.9184C118.13 14.1474 118.023 14.4763 118.077 14.799L118.925 19.8191C119.062 20.6339 118.208 21.2545 117.476 20.8719L112.963 18.5148C112.673 18.3633 112.327 18.3633 112.037 18.5148L107.524 20.8719C106.792 21.2545 105.938 20.6339 106.075 19.8191L106.923 14.799C106.977 14.4763 106.87 14.1474 106.636 13.9184L103 10.355C102.41 9.77665 102.736 8.77261 103.554 8.6516L108.59 7.90606C108.914 7.85814 109.194 7.65487 109.339 7.3618L111.604 2.80247Z"
    fill="#FFDD2D"
  />
</svg>