<svg
   xmlns="http://www.w3.org/2000/svg"
   width="125"
   height="25"
   viewBox="0 0 125 25"
   fill="none"
 >
   <path
     d="M11.6044 2.80235C11.9721 2.0623 13.0279 2.0623 13.3956 2.80236L15.6609 7.36168C15.8065 7.65475 16.0863 7.85802 16.41 7.90594L21.4462 8.65148C22.2636 8.77249 22.5899 9.77653 21.9997 10.3549L18.3635 13.9183C18.1298 14.1473 18.0229 14.4762 18.0774 14.7989L18.9246 19.819C19.0621 20.6338 18.208 21.2544 17.4756 20.8718L12.963 18.5147C12.6729 18.3632 12.3271 18.3632 12.037 18.5147L7.52448 20.8718C6.79201 21.2544 5.93793 20.6338 6.07544 19.819L6.92267 14.7989C6.97713 14.4762 6.87026 14.1473 6.63653 13.9183L3.00038 10.3549C2.41017 9.77653 2.7364 8.77249 3.55386 8.65148L8.59006 7.90594C8.91377 7.85802 9.19356 7.65475 9.33917 7.36168L11.6044 2.80235Z"
     fill="#FFDD2D"
   />
   <path
     d="M36.6045 2.80235C36.9722 2.0623 38.028 2.0623 38.3957 2.80236L40.661 7.36168C40.8066 7.65475 41.0864 7.85802 41.4101 7.90594L46.4463 8.65148C47.2637 8.77249 47.59 9.77653 46.9998 10.3549L43.3636 13.9183C43.1299 14.1473 43.023 14.4762 43.0775 14.7989L43.9247 19.819C44.0622 20.6338 43.2081 21.2544 42.4757 20.8718L37.9631 18.5147C37.673 18.3632 37.3272 18.3632 37.0371 18.5147L32.5245 20.8718C31.7921 21.2544 30.938 20.6338 31.0755 19.819L31.9227 14.7989C31.9772 14.4762 31.8703 14.1473 31.6366 13.9183L28.0004 10.3549C27.4102 9.77653 27.7365 8.77249 28.5539 8.65148L33.5901 7.90594C33.9138 7.85802 34.1936 7.65475 34.3392 7.36168L36.6045 2.80235Z"
     fill="#FFDD2D"
   />
   <path
     d="M61.6045 2.80235C61.9722 2.0623 63.028 2.0623 63.3957 2.80236L65.661 7.36168C65.8066 7.65475 66.0864 7.85802 66.4101 7.90594L71.4463 8.65148C72.2637 8.77249 72.59 9.77653 71.9998 10.3549L68.3636 13.9183C68.1299 14.1473 68.023 14.4762 68.0775 14.7989L68.9247 19.819C69.0622 20.6338 68.2081 21.2544 67.4757 20.8718L62.9631 18.5147C62.673 18.3632 62.3272 18.3632 62.0371 18.5147L57.5245 20.8718C56.7921 21.2544 55.938 20.6338 56.0755 19.819L56.9227 14.7989C56.9772 14.4762 56.8703 14.1473 56.6366 13.9183L53.0004 10.3549C52.4102 9.77653 52.7365 8.77249 53.5539 8.65148L58.5901 7.90594C58.9138 7.85802 59.1936 7.65475 59.3392 7.36168L61.6045 2.80235Z"
     fill="#FFDD2D"
   />
   <path
     d="M86.6045 2.80235C86.9722 2.0623 88.028 2.0623 88.3957 2.80236L90.661 7.36168C90.8066 7.65475 91.0864 7.85802 91.4101 7.90594L96.4463 8.65148C97.2637 8.77249 97.59 9.77653 96.9998 10.3549L93.3636 13.9183C93.1299 14.1473 93.023 14.4762 93.0775 14.7989L93.9247 19.819C94.0622 20.6338 93.2081 21.2544 92.4757 20.8718L87.9631 18.5147C87.673 18.3632 87.3272 18.3632 87.0371 18.5147L82.5245 20.8718C81.7921 21.2544 80.938 20.6338 81.0755 19.819L81.9227 14.7989C81.9772 14.4762 81.8703 14.1473 81.6366 13.9183L78.0004 10.3549C77.4102 9.77653 77.7365 8.77249 78.5539 8.65148L83.5901 7.90594C83.9138 7.85802 84.1936 7.65475 84.3392 7.36168L86.6045 2.80235Z"
     fill="#FFDD2D"
   />
   <path
     d="M111.604 2.80235C111.972 2.0623 113.028 2.0623 113.396 2.80236L115.661 7.36168C115.806 7.65475 116.086 7.85802 116.41 7.90594L121.446 8.65148C122.264 8.77249 122.59 9.77653 122 10.3549L118.364 13.9183C118.13 14.1473 118.023 14.4762 118.077 14.7989L118.925 19.819C119.062 20.6338 118.208 21.2544 117.476 20.8718L112.963 18.5147C112.673 18.3632 112.327 18.3632 112.037 18.5147L107.524 20.8718C106.792 21.2544 105.938 20.6338 106.075 19.819L106.923 14.7989C106.977 14.4762 106.87 14.1473 106.636 13.9183L103 10.3549C102.41 9.77653 102.736 8.77249 103.554 8.65148L108.59 7.90594C108.914 7.85802 109.194 7.65475 109.339 7.36168L111.604 2.80235Z"
     fill="#FFDD2D"
   />
   <mask
     id="mask0_158_1065"
     style="mask-type: luminance"
     maskUnits="userSpaceOnUse"
     x="113"
     y="1"
     width="11"
     height="23"
   >
     <path d="M124 1H113V24H124V1Z" fill="white" />
   </mask>
   <g mask="url(#mask0_158_1065)">
     <path
       d="M111.604 2.80235C111.972 2.0623 113.028 2.0623 113.396 2.80236L115.661 7.36168C115.806 7.65475 116.086 7.85802 116.41 7.90594L121.446 8.65148C122.264 8.77249 122.59 9.77653 122 10.3549L118.364 13.9183C118.13 14.1473 118.023 14.4762 118.077 14.7989L118.925 19.819C119.062 20.6338 118.208 21.2544 117.476 20.8718L112.963 18.5147C112.673 18.3632 112.327 18.3632 112.037 18.5147L107.524 20.8718C106.792 21.2544 105.938 20.6338 106.075 19.819L106.923 14.7989C106.977 14.4762 106.87 14.1473 106.636 13.9183L103 10.3549C102.41 9.77653 102.736 8.77249 103.554 8.65148L108.59 7.90594C108.914 7.85802 109.194 7.65475 109.339 7.36168L111.604 2.80235Z"
       fill="#ECF1F7"
     />
   </g>
 </svg>